<svg xmlns="http://www.w3.org/2000/svg" viewBox="0 0 1920 1080"><defs><style>.cls-1,.cls-2{fill:#2f4f4f;}.cls-2{stroke:#000;stroke-miterlimit:10;stroke-width:20px;}.cls-3{fill:#020202;}</style></defs><title>logo-nav</title><g id="Lag_1" data-name="Lag 1"><rect class="cls-1" width="1920" height="1080"/></g><g id="Lag_2" data-name="Lag 2"><circle class="cls-2" cx="960" cy="540" r="228.26"/></g><g id="Lag_3" data-name="Lag 3"><path d="M6913.46,6996" transform="translate(-6240 -6660)"/><path class="cls-3" d="M6930.85,7042.37c-3.14,43.07,14.58,70,44.93,129,21.58,41.93,57.7,115.91,115.94,204.34,7.92,12,22,32.92,34.78,30.44,13.76-2.66,18.13-30.73,24.64-62.32,12.89-62.57,30.19-146.49,49.27-147.83,13.32-.93,24.23,38.6,79.71,146.38,16,31,22.24,41.68,31.89,42,29.61,1.08,55-96.44,69.56-152.18,3.17-12.14,32.08-124.44,15.94-130.43-8.12-3-25.16,21.83-26.08,23.19-10,14.8-12.88,29-14.27,36.25-8,42.24-16.7,93-17,94.87-7.66,44.81-11.49,67.21-19.43,68.88-28.38,6-70.4-194.39-123.4-191.68-31.07,1.58-54.31,72.36-60.66,91.68-20.82,63.43-8.27,103.13-18.84,105.8-24.23,6.12-120.68-195.3-149.27-304.35-2.68-10.22-9.93-39.33-18.84-39.13C6940.4,6987.51,6932.51,7019.49,6930.85,7042.37Z" transform="translate(-6240 -6660)"/></g></svg>