<?xml version="1.0" encoding="utf-8"?>
<!-- Generator: Adobe Illustrator 23.0.2, SVG Export Plug-In . SVG Version: 6.00 Build 0)  -->
<svg version="1.1" id="Lag_1" xmlns="http://www.w3.org/2000/svg" xmlns:xlink="http://www.w3.org/1999/xlink" x="0px" y="0px"
	 viewBox="0 0 1920 1080" style="enable-background:new 0 0 1920 1080;" xml:space="preserve">
<style type="text/css">
	.st0{fill:#FFFFFF;}
	.st1{font-family:'InkFree';}
	.st2{font-size:520px;}
	.st3{opacity:0.1091;}
</style>
<g>
	<circle class="st0" cx="858.5" cy="518.5" r="212"/>
	<path d="M858.5,315c27.48,0,54.13,5.38,79.21,15.99c24.23,10.25,46,24.92,64.69,43.62c18.69,18.69,33.37,40.46,43.62,64.69
		c10.61,25.08,15.99,51.73,15.99,79.21s-5.38,54.13-15.99,79.21c-10.25,24.23-24.92,46-43.62,64.69
		c-18.69,18.69-40.46,33.37-64.69,43.62C912.63,716.62,885.98,722,858.5,722s-54.13-5.38-79.21-15.99
		c-24.23-10.25-46-24.92-64.69-43.62c-18.69-18.69-33.37-40.46-43.62-64.69C660.38,572.63,655,545.98,655,518.5
		s5.38-54.13,15.99-79.21c10.25-24.23,24.92-46,43.62-64.69c18.69-18.69,40.46-33.37,64.69-43.62
		C804.37,320.38,831.02,315,858.5,315 M858.5,298C736.72,298,638,396.72,638,518.5S736.72,739,858.5,739S1079,640.28,1079,518.5
		S980.28,298,858.5,298L858.5,298z"/>
</g>
<text transform="matrix(1 0 0 1 685.5 672.5)" class="st1 st2">W</text>
<g>
	<g>
		<g>
			<path class="st3" d="M921.09,13.91c0.85,0-0.69-1.38-0.67-1.36c-0.65-0.64-1.32-1.27-2-1.87c-0.33-0.36-0.72-0.64-1.16-0.84
				c-0.85,0,0.69,1.38,0.67,1.36c0.65,0.64,1.32,1.27,2,1.87C920.26,13.43,920.65,13.71,921.09,13.91z"/>
			<path class="st3" d="M921.58,17.94c0.72,0-1.13-2.79-1.78-2.79C919.08,15.15,920.93,17.94,921.58,17.94z"/>
			<path class="st3" d="M918.85,11.28c-0.13-0.47-0.41-0.85-0.82-1.14c-1.24-1.2-2.51-2.38-3.8-3.53c-1.28-1.17-2.58-2.3-3.91-3.41
				c-0.34-0.38-0.74-0.62-1.22-0.7c0.13,0.47,0.41,0.85,0.82,1.14c1.24,1.2,2.51,2.38,3.8,3.53c1.28,1.17,2.58,2.3,3.91,3.41
				C917.96,10.96,918.37,11.2,918.85,11.28z"/>
			<path class="st3" d="M919.07,13.3c-0.03-0.4-0.2-0.75-0.53-1.03c-0.89-1.08-1.81-2.14-2.76-3.18c-0.93-1.05-1.89-2.07-2.88-3.07
				c-0.25-0.35-0.57-0.56-0.97-0.63c0.03,0.4,0.2,0.75,0.53,1.03c0.89,1.08,1.81,2.14,2.76,3.18c0.93,1.05,1.89,2.07,2.88,3.07
				C918.35,13.03,918.67,13.24,919.07,13.3z"/>
			<path class="st3" d="M921.76,13.43c0.71,0-0.35-0.99-0.35-0.99c-0.45-0.43-1.46-1.57-2.16-1.57c-0.71,0,0.35,0.99,0.35,0.99
				C920.05,12.29,921.06,13.43,921.76,13.43z"/>
			<path class="st3" d="M918.71,10.65c-0.07-0.39-0.28-0.69-0.63-0.92c-1-0.92-2.02-1.81-3.06-2.68c-1.03-0.88-2.09-1.73-3.17-2.56
				c-0.29-0.31-0.63-0.46-1.02-0.47c0.07,0.39,0.28,0.69,0.63,0.92c1,0.92,2.02,1.81,3.06,2.68c1.03,0.88,2.09,1.73,3.17,2.56
				C917.98,10.49,918.32,10.64,918.71,10.65z"/>
			<path class="st3" d="M919.69,14.89c-0.04-0.45-0.24-0.84-0.58-1.17c-0.97-1.27-1.98-2.52-3.01-3.75
				c-1.02-1.24-2.06-2.46-3.13-3.65c-0.26-0.4-0.61-0.67-1.04-0.79c0.04,0.45,0.24,0.84,0.58,1.17c0.97,1.27,1.98,2.52,3.01,3.75
				c1.02,1.24,2.06,2.46,3.13,3.65C918.91,14.51,919.26,14.77,919.69,14.89z"/>
			<path class="st3" d="M920.67,12.04c0.6,0-0.16-0.8-0.2-0.83c-0.35-0.37-1.1-1.08-1.65-1.08c-0.6,0,0.16,0.8,0.2,0.83
				C919.37,11.33,920.11,12.04,920.67,12.04z"/>
			<path class="st3" d="M919.34,12.85c-0.14-0.52-0.42-0.95-0.86-1.31c-1.3-1.42-2.63-2.82-3.98-4.19c-1.34-1.39-2.7-2.75-4.1-4.08
				c-0.34-0.44-0.77-0.74-1.28-0.89c0.14,0.52,0.42,0.95,0.86,1.31c1.3,1.42,2.63,2.82,3.98,4.19c1.34,1.39,2.7,2.75,4.1,4.08
				C918.4,12.4,918.83,12.7,919.34,12.85z"/>
			<path class="st3" d="M919.14,12.07c0.9,0-0.83-1.5-0.8-1.48c-0.73-0.72-1.48-1.42-2.25-2.1c-0.38-0.4-0.81-0.71-1.29-0.96
				c-0.9,0,0.83,1.5,0.8,1.48c0.73,0.72,1.48,1.42,2.25,2.1C918.22,11.51,918.65,11.83,919.14,12.07z"/>
			<path class="st3" d="M921.56,11.93c0.56,0-0.13-0.74-0.16-0.77c-0.33-0.35-0.98-0.84-1.48-0.84c-0.56,0,0.13,0.74,0.16,0.77
				C920.41,11.44,921.06,11.93,921.56,11.93z"/>
			<path class="st3" d="M918.94,13.7c-0.07-0.48-0.29-0.89-0.66-1.23c-1.07-1.35-2.16-2.67-3.29-3.97c-1.11-1.31-2.25-2.6-3.41-3.87
				c-0.28-0.42-0.65-0.7-1.12-0.85c0.07,0.48,0.29,0.89,0.66,1.23c1.07,1.35,2.16,2.67,3.29,3.97c1.11,1.31,2.25,2.6,3.41,3.87
				C918.1,13.27,918.47,13.56,918.94,13.7z"/>
		</g>
	</g>
</g>
<g>
	<g>
		<g>
			<path class="st3" d="M188.99,504.03c0.85,0-0.69-1.38-0.67-1.36c-0.65-0.64-1.32-1.27-2-1.87c-0.33-0.36-0.72-0.64-1.16-0.84
				c-0.85,0,0.69,1.38,0.67,1.36c0.65,0.64,1.32,1.27,2,1.87C188.17,503.55,188.55,503.83,188.99,504.03z"/>
			<path class="st3" d="M189.48,508.06c0.72,0-1.13-2.79-1.78-2.79C186.98,505.27,188.83,508.06,189.48,508.06z"/>
			<path class="st3" d="M186.75,501.4c-0.13-0.47-0.41-0.85-0.82-1.14c-1.24-1.2-2.51-2.38-3.8-3.53c-1.28-1.17-2.58-2.3-3.91-3.41
				c-0.34-0.38-0.74-0.62-1.22-0.7c0.13,0.47,0.41,0.85,0.82,1.14c1.24,1.2,2.51,2.38,3.8,3.53c1.28,1.17,2.58,2.3,3.91,3.41
				C185.87,501.09,186.27,501.32,186.75,501.4z"/>
			<path class="st3" d="M186.97,503.43c-0.03-0.4-0.2-0.75-0.53-1.03c-0.89-1.08-1.81-2.14-2.76-3.18
				c-0.93-1.05-1.89-2.07-2.88-3.07c-0.25-0.35-0.57-0.56-0.97-0.63c0.03,0.4,0.2,0.75,0.53,1.03c0.89,1.08,1.81,2.14,2.76,3.18
				c0.93,1.05,1.89,2.07,2.88,3.07C186.25,503.15,186.57,503.36,186.97,503.43z"/>
			<path class="st3" d="M189.66,503.56c0.71,0-0.35-0.99-0.35-0.99c-0.45-0.43-1.46-1.57-2.16-1.57c-0.71,0,0.35,0.99,0.35,0.99
				C187.95,502.41,188.96,503.56,189.66,503.56z"/>
			<path class="st3" d="M186.61,500.77c-0.07-0.39-0.28-0.69-0.63-0.92c-1-0.92-2.02-1.81-3.06-2.68c-1.03-0.88-2.09-1.73-3.17-2.56
				c-0.29-0.31-0.63-0.46-1.02-0.47c0.07,0.39,0.28,0.69,0.63,0.92c1,0.92,2.02,1.81,3.06,2.68c1.03,0.88,2.09,1.73,3.17,2.56
				C185.88,500.61,186.22,500.77,186.61,500.77z"/>
			<path class="st3" d="M187.59,505.02c-0.04-0.45-0.24-0.84-0.58-1.17c-0.97-1.27-1.98-2.52-3.01-3.75
				c-1.02-1.24-2.06-2.46-3.13-3.65c-0.26-0.4-0.61-0.67-1.04-0.79c0.04,0.45,0.24,0.84,0.58,1.17c0.97,1.27,1.98,2.52,3.01,3.75
				c1.02,1.24,2.06,2.46,3.13,3.65C186.81,504.63,187.16,504.89,187.59,505.02z"/>
			<path class="st3" d="M188.57,502.16c0.6,0-0.16-0.8-0.2-0.83c-0.35-0.37-1.1-1.08-1.65-1.08c-0.6,0,0.16,0.8,0.2,0.83
				C187.27,501.45,188.01,502.16,188.57,502.16z"/>
			<path class="st3" d="M187.24,502.97c-0.14-0.52-0.42-0.95-0.86-1.31c-1.3-1.42-2.63-2.82-3.98-4.19c-1.34-1.39-2.7-2.75-4.1-4.08
				c-0.34-0.44-0.77-0.74-1.28-0.89c0.14,0.52,0.42,0.95,0.86,1.31c1.3,1.42,2.63,2.82,3.98,4.19c1.34,1.39,2.7,2.75,4.1,4.08
				C186.3,502.53,186.73,502.82,187.24,502.97z"/>
			<path class="st3" d="M187.04,502.19c0.9,0-0.83-1.5-0.8-1.48c-0.73-0.72-1.48-1.42-2.25-2.1c-0.38-0.4-0.81-0.71-1.29-0.96
				c-0.9,0,0.83,1.5,0.8,1.48c0.73,0.72,1.48,1.42,2.25,2.1C186.12,501.63,186.55,501.95,187.04,502.19z"/>
			<path class="st3" d="M189.46,502.06c0.56,0-0.13-0.74-0.16-0.77c-0.33-0.35-0.98-0.84-1.48-0.84c-0.56,0,0.13,0.74,0.16,0.77
				C188.31,501.57,188.96,502.06,189.46,502.06z"/>
			<path class="st3" d="M186.84,503.82c-0.07-0.48-0.29-0.89-0.66-1.23c-1.07-1.35-2.16-2.67-3.29-3.97
				c-1.11-1.31-2.25-2.6-3.41-3.87c-0.28-0.42-0.65-0.7-1.12-0.85c0.07,0.48,0.29,0.89,0.66,1.23c1.07,1.35,2.16,2.67,3.29,3.97
				c1.11,1.31,2.25,2.6,3.41,3.87C186,503.4,186.38,503.68,186.84,503.82z"/>
		</g>
	</g>
</g>
<g>
	<g>
		<path class="st0" d="M1120.75,404.77c-16.75,7.82-33.99,13.69-51.66,19.03c-14.9,4.5-30.61,11.25-37.46,26.3
			c-2.65,5.81,5.97,10.9,8.63,5.05c6.93-15.23,23.92-19.43,38.59-23.8c16.08-4.79,31.74-10.83,46.94-17.94
			C1131.62,410.68,1126.55,402.06,1120.75,404.77L1120.75,404.77z"/>
	</g>
</g>
<g>
	<g>
		<path class="st0" d="M1076.51,408.96c-16.06,2.61-30.75,9.66-43.14,20.16c2.62,2.02,5.24,4.04,7.85,6.06
			c5.05-7.41,13.46-11.11,22.29-10.56c-1.44-2.51-2.88-5.02-4.32-7.52c-2.72,4.1-9.92,4.53-13.73,7.7
			c-3.98,3.32-6.43,8.3-4.54,13.42c3.05-1.28,6.09-2.57,9.14-3.85c-2.93-4.28,3.67-9.37,5.97-12.48c2.7-3.64,3.02-8.7-0.71-11.76
			c-7.92-6.52-19.43,2.34-25.55,7.31c2.36,2.36,4.71,4.71,7.07,7.07c3.81-4.33,7.62-8.66,11.42-12.99c4.22-4.8-2.66-11.82-7.07-7.07
			c-3.2,3.44-6.4,6.88-9.59,10.32c2.79,1.62,5.57,3.24,8.36,4.86c2.5-7.2,5.41-14.21,8.77-21.06c1.99-4.07-2.4-9.98-6.84-6.84
			c-6.41,4.53-10.85,10.72-12.52,18.46c3.21,0,6.43,0,9.64,0c-0.6-3.35,0.24-6.27,2.03-9.11c-3.11-0.84-6.21-1.68-9.32-2.52
			c-0.07,1.79-0.13,3.58-0.2,5.37c-0.21,5.62,8.48,6.81,9.82,1.33c3.48-14.18-0.23-28.74-9.93-39.62c-3.8-4.26-10.79,1.24-7.85,6.06
			c5.69,9.34,5.37,20.68-0.65,29.78c3.05,0.4,6.09,0.8,9.14,1.19c-11.44-44.59-13.02-91.36-4.44-136.6
			c1.19-6.29-8.44-8.98-9.64-2.66c-8.92,47.04-7.46,95.52,4.44,141.91c1.12,4.37,6.85,4.66,9.14,1.19
			c7.92-11.96,8.1-27.65,0.65-39.87c-2.62,2.02-5.24,4.04-7.85,6.06c7.27,8.15,9.96,19.31,7.36,29.89c3.27,0.44,6.55,0.89,9.82,1.33
			c0.07-1.79,0.13-3.58,0.2-5.37c0.19-5.15-6.78-6.55-9.32-2.52c-3.28,5.21-4.11,10.8-3.03,16.82c0.87,4.86,8.63,4.68,9.64,0
			c1.1-5.11,3.6-9.43,7.92-12.48c-2.28-2.28-4.56-4.56-6.84-6.84c-3.73,7.62-6.99,15.43-9.77,23.45c-1.65,4.74,5.04,8.43,8.36,4.86
			c3.2-3.44,6.4-6.88,9.59-10.32c-2.36-2.36-4.71-4.71-7.07-7.07c-3.81,4.33-7.62,8.66-11.42,12.99c-4.31,4.91,2.12,11.09,7.07,7.07
			c2.81-2.28,6.35-5.06,9.86-6.16c0.67-0.26,1.37-0.39,2.09-0.38c-0.75-1.76-1.51-1.88-2.26-0.37c-1.18,0.65-2.31,2.78-3.11,3.88
			c-3.82,5.31-5.99,12.11-2,17.95c2.98,4.37,11.23,1.8,9.14-3.85c-1.36-3.68,6.24-5.5,8.62-6.52c3.64-1.54,6.44-3.58,8.64-6.89
			c2.23-3.36-0.77-7.31-4.32-7.52c-12.47-0.76-23.96,5.29-30.93,15.52c-3.39,4.97,3.78,9.51,7.85,6.06
			c11.09-9.4,24.41-15.26,38.72-17.59C1085.5,417.57,1082.81,407.94,1076.51,408.96L1076.51,408.96z"/>
	</g>
</g>
<g>
	<g>
		<path class="st0" d="M1059.12,489.51c0.61-20.06,0.26-40.12-1.05-60.14c-0.42-6.37-10.28-6.47-10,0
			c0.35,8.1,0.04,16.15-0.95,24.21c3.27-0.44,6.55-0.89,9.82-1.33c-6.97-16.97,0.49-34.15,7.66-49.69c2.68-5.8-5.94-10.89-8.63-5.05
			c-8.22,17.82-16.67,37.92-8.67,57.4c2.18,5.31,9.12,4.4,9.82-1.33c0.98-8.05,1.3-16.1,0.95-24.21c-3.33,0-6.67,0-10,0
			c1.31,20.03,1.66,40.08,1.05,60.14C1048.93,495.95,1058.93,495.94,1059.12,489.51L1059.12,489.51z"/>
	</g>
</g>
<g>
	<g>
		<path d="M1019.62,386.68c-0.45-6.9-1.36-13.74-2.72-20.52c-1.27-6.3-10.91-3.64-9.64,2.66c1.19,5.91,1.97,11.84,2.36,17.86
			C1010.04,393.06,1020.04,393.11,1019.62,386.68L1019.62,386.68z"/>
	</g>
</g>
<g>
	<g>
		<path class="st0" d="M1072.19,433.34c-1.57-0.57-2.49-1.42-3.58-2.64c-3.88-4.39-10.44,1.21-7.85,6.06
			c5,9.4,9.04,19.06,11.95,29.31c3.21-0.89,6.43-1.77,9.64-2.66c-3.22-7.96-9.65-16.79-7.76-25.78c1.32-6.28-8.32-8.96-9.64-2.66
			c-2.44,11.63,3.58,20.75,7.76,31.1c2.34,5.8,11.45,3.71,9.64-2.66c-3.14-11.06-7.56-21.56-12.96-31.7
			c-2.62,2.02-5.24,4.04-7.85,6.06c2.26,2.56,4.8,4.06,7.99,5.21C1075.6,445.17,1078.21,435.51,1072.19,433.34L1072.19,433.34z"/>
	</g>
</g>
<g>
	<g>
		<path d="M1014.91,395.38c6.43,0,6.45-10,0-10C1008.48,385.38,1008.47,395.38,1014.91,395.38L1014.91,395.38z"/>
	</g>
</g>
<g>
	<g>
		<path d="M1014.91,396.6c6.43,0,6.45-10,0-10C1008.48,386.6,1008.47,396.6,1014.91,396.6L1014.91,396.6z"/>
	</g>
</g>
<g>
	<g>
		<path class="st0" d="M1019.19,365.72c6.43,0,6.45-10,0-10C1012.76,355.72,1012.75,365.72,1019.19,365.72L1019.19,365.72z"/>
	</g>
</g>
<g>
	<g>
		<path class="st0" d="M1020.72,367.55c6.43,0,6.45-10,0-10C1014.29,357.55,1014.27,367.55,1020.72,367.55L1020.72,367.55z"/>
	</g>
</g>
<g>
	<g>
		<path class="st0" d="M1021.33,368.78c6.43,0,6.45-10,0-10C1014.9,358.78,1014.89,368.78,1021.33,368.78L1021.33,368.78z"/>
	</g>
</g>
<g>
	<g>
		<path class="st0" d="M1021.03,368.78c6.43,0,6.45-10,0-10C1014.59,358.78,1014.58,368.78,1021.03,368.78L1021.03,368.78z"/>
	</g>
</g>
<g>
	<g>
		<path d="M1068.61,477.43c-0.06-6.63-0.11-13.25-0.18-19.88c-0.03-2.72-0.06-5.43-0.55-8.12c-0.55-2.99-2-5.62-2.75-8.55
			c-1.61-6.31-10.79-3.59-9.64,2.66c2.03,11.04,3.17,22.15,3.48,33.37c0.15,5.36,9.01,7.13,9.82,1.33
			c1.23-8.77,4.13-18.17-0.87-26.22c-3.39-5.46-12.04-0.44-8.63,5.05c3.25,5.24,0.67,12.77-0.14,18.51
			c3.27,0.44,6.55,0.89,9.82,1.33c-0.34-12.1-1.65-24.12-3.84-36.03c-3.21,0.89-6.43,1.77-9.64,2.66c0.61,2.38,1.8,4.55,2.4,6.93
			c0.73,2.89,0.53,6.03,0.56,8.98c0.06,5.99,0.11,11.99,0.17,17.98C1058.67,483.86,1068.67,483.88,1068.61,477.43L1068.61,477.43z"
			/>
	</g>
</g>
<g>
	<g>
		<path class="st0" d="M1060.53,436.37c3.81,5.46,7.02,11.24,9.44,17.45c3.05-1.28,6.09-2.57,9.14-3.85
			c-1.81-2.91-2.99-5.8-3.76-9.14c-2.79,1.62-5.57,3.24-8.36,4.86c2.98,2.85,2.28,4.77,2.46,8.61c0.17,3.6,1.26,6.83,2.45,10.19
			c0.87,2.44,1.55,5.22,3.31,7.19c2.12,2.37,5.09,2.6,7.66,4.17c5.51,3.35,10.54-5.29,5.05-8.63c-2.42-1.47-4.62-1.35-5.84-3.9
			c-1.42-2.94-2.5-6.52-2.65-9.77c-0.3-6.34-0.57-10.33-5.37-14.93c-3.68-3.53-9.47,0.02-8.36,4.86c0.94,4.12,2.53,7.94,4.77,11.53
			c2.85,4.58,11.28,1.65,9.14-3.85c-2.74-7.04-6.13-13.64-10.45-19.84C1065.51,426.08,1056.84,431.07,1060.53,436.37L1060.53,436.37
			z"/>
	</g>
</g>
<g>
	<g>
		<path class="st0" d="M1059.5,486.61c-0.19-4.19-0.54-8.36-1.06-12.53c-3.27,0.44-6.55,0.89-9.82,1.33
			c0.14,0.64,0.29,1.28,0.43,1.92c0.96,4.24,7.06,4.82,9.14,1.19c2.39-4.18-0.83-8.66-5.41-8.68c-4.09-0.01-5.96,3.29-9.46,4.6
			c-2.53,0.95-4.25,3.38-3.49,6.15c0.67,2.43,3.61,4.45,6.15,3.49c1.57-0.59,3.13-1.23,4.54-2.15c0.7-0.46,1.38-0.98,2.03-1.5
			c0.21-0.18,0.43-0.35,0.64-0.53c0.93-0.66,0.34-0.79-1.76-0.38c-0.77-1-1.53-1.99-2.3-2.99c0.04,0.14,0.09,0.28,0.13,0.43
			c0.17-1.28,0.34-2.57,0.5-3.85c-0.07,0.12-0.14,0.24-0.21,0.36c3.05,0.4,6.09,0.8,9.14,1.19c-0.14-0.64-0.29-1.28-0.43-1.92
			c-1.22-5.38-10.53-4.33-9.82,1.33c0.52,4.16,0.87,8.34,1.06,12.53C1049.78,493.01,1059.78,493.05,1059.5,486.61L1059.5,486.61z"/>
	</g>
</g>
<g>
	<g>
		<path class="st0" d="M1057.1,456.32c-0.61-6.86-1.04-13.74-1.29-20.62c-0.07-1.92-3.07-1.93-3,0c0.26,6.89,0.69,13.76,1.29,20.62
			C1054.27,458.23,1057.27,458.25,1057.1,456.32L1057.1,456.32z"/>
	</g>
</g>
<g>
	<g>
		<path class="st0" d="M1058.57,473.29c1.01-5.38-0.14-11.1-0.6-16.5c-0.57-6.57-1.14-13.14-1.71-19.7c-0.17-1.91-3.17-1.93-3,0
			c0.51,5.91,1.02,11.82,1.54,17.73c0.49,5.66,1.94,12.05,0.88,17.67C1055.32,474.38,1058.21,475.19,1058.57,473.29L1058.57,473.29z
			"/>
	</g>
</g>
<g>
	<g>
		<path class="st0" d="M1055.72,470.93c0.65,0.62,0.3,5.36,0.31,6.26c0.03,1.99,0.05,3.98,0.08,5.96c0.05,3.98,0.11,7.95,0.16,11.93
			c0.03,1.93,3.03,1.93,3,0c-0.08-5.63-0.15-11.27-0.23-16.9c-0.04-2.73,0.98-7.27-1.2-9.38
			C1056.45,467.47,1054.33,469.59,1055.72,470.93L1055.72,470.93z"/>
	</g>
</g>
<g>
	<g>
		<path class="st0" d="M1073.9,461.73c-1.35-5.65-2.72-10.86-5.14-16.18c-1.68-3.68-3.68-9.63-7.87-10.93
			c-1.51-0.47-2.41,1.45-1.46,2.51c2.03,2.28,3.84,4.67,5.48,7.24c0.79-0.61,1.57-1.21,2.36-1.82c-0.79-0.84-1.4-1.78-1.84-2.83
			c-0.86,0.5-1.73,1.01-2.59,1.51c3.07,4.68,4.46,9.57,6.6,14.63c1.17,2.77,3.85,3.25,6.66,3.86c1.88,0.41,2.69-2.48,0.8-2.89
			c-2.83-0.61-3.85-1.16-5.13-3.72c-0.7-1.4-1.02-3.09-1.62-4.55c-1.28-3.12-2.89-6.04-4.73-8.85c-1.06-1.62-3.46-0.21-2.59,1.51
			c0.65,1.3,1.37,2.34,2.31,3.43c1.11,1.29,3.27-0.39,2.36-1.82c-1.79-2.8-3.74-5.37-5.95-7.85c-0.49,0.84-0.97,1.67-1.46,2.51
			c3.39,1.05,6,9.32,7.25,12.26c1.78,4.22,2.62,8.34,3.67,12.76C1071.46,464.41,1074.35,463.61,1073.9,461.73L1073.9,461.73z"/>
	</g>
</g>
</svg>
